<svg id="Layer_1" data-name="Layer 1" xmlns="http://www.w3.org/2000/svg" viewBox="0 0 243.97 244"><defs><style>.cls-1{fill:red;}.cls-2{fill:none;stroke:red;stroke-linecap:round;stroke-linejoin:round;stroke-width:15px;}</style></defs><title>forbidden</title><g id="banned_mc" data-name="banned mc"><g id="banned_mc_0_Layer1_0_FILL" data-name="banned mc 0 Layer1 0 FILL"><path d="M208.25,35.75Q172.49,0,122,0T35.8,35.75Q0,71.53,0,122T35.8,208.22Q71.56,244,122,244t86.22-35.76Q244,172.45,244,122T208.25,35.75Z" transform="translate(-0.04 0.01)"/></g><g id="banned_mc_0_Layer1_1_FILL" data-name="banned mc 0 Layer1 1 FILL"><path class="cls-1" d="M200.24,43.75q-32.52-32.52-78.39-32.52T43.46,43.75Q11,76.26,11,122.14t32.51,78.39Q76,233.05,121.85,233.05t78.39-32.52q32.5-32.5,32.51-78.39T200.24,43.75Z" transform="translate(-0.04 0.01)"/></g><g id="banned_mc_0_Layer1_2_FILL" data-name="banned mc 0 Layer1 2 FILL"><path d="M183,60.9q-25.29-25.3-61-25.3t-61,25.3q-25.29,25.29-25.29,61t25.29,61q25.29,25.29,61,25.29t61-25.29q25.29-25.31,25.29-61T183,60.9Z" transform="translate(-0.04 0.01)"/></g><path id="banned_cross_0_Layer0_0_1_STROKES" data-name="banned cross 0 Layer0 0 1 STROKES" class="cls-2" d="M53.88,53.88,190.1,190.12" transform="translate(-0.04 0.01)"/></g></svg>