<svg id="Layer_1" data-name="Layer 1" xmlns="http://www.w3.org/2000/svg" viewBox="0 0 243.97 244"><defs><style>.cls-1{fill:red;}.cls-2{fill:#fff;}</style></defs><title>limited</title><g id="limited_mc" data-name="limited mc"><g id="banned_circle2_0_Layer0_0_FILL" data-name="banned circle2 0 Layer0 0 FILL"><path d="M208.25,35.75Q172.49,0,122,0T35.8,35.75Q0,71.53,0,122T35.8,208.22Q71.56,244,122,244t86.22-35.76Q244,172.45,244,122T208.25,35.75Z" transform="translate(-0.04 0.01)"/></g><g id="banned_circle2_0_Layer0_1_FILL" data-name="banned circle2 0 Layer0 1 FILL"><path class="cls-1" d="M200.24,43.75q-32.52-32.52-78.39-32.52T43.46,43.75Q11,76.26,11,122.14t32.51,78.39Q76,233.05,121.85,233.05t78.39-32.52q32.5-32.5,32.51-78.39T200.24,43.75Z" transform="translate(-0.04 0.01)"/></g><g id="banned_circle2_0_Layer0_2_FILL" data-name="banned circle2 0 Layer0 2 FILL"><path d="M183,60.9q-25.29-25.3-61-25.3t-61,25.3q-25.29,25.29-25.29,61t25.29,61q25.29,25.29,61,25.29t61-25.29q25.29-25.31,25.29-61T183,60.9Z" transform="translate(-0.04 0.01)"/></g><g id="FL_1_mc_0_Layer0_0_FILL" data-name="FL 1 mc 0 Layer0 0 FILL"><path class="cls-2" d="M79.9,77.16l8.85-2.44,5.89-1.32,4.88-.4q8,0,8,7.42v73.71l-.4,11.28-1.22,4.47-1.73,1.73a6,6,0,0,1-3,1l-6,.71L85,174.05v7h81.23v-7l-9.46-.61-5.59-.61-3.25-.91a5.17,5.17,0,0,1-1.73-1.12l-1.42-1.73a8.28,8.28,0,0,1-.71-2.74l-.41-4.68-.1-7.52V50.83L77.87,68.73Z" transform="translate(-0.04 0.01)"/></g></g></svg>