<svg id="Layer_1" data-name="Layer 1" xmlns="http://www.w3.org/2000/svg" viewBox="0 0 120 120"><defs><style>.cls-1{fill:red;}.cls-2{fill:#fff;}</style></defs><title>semi2</title><g id="banned_circle3_0_Layer2_0_FILL" data-name="banned circle3 0 Layer2 0 FILL"><path d="M102.43,17.58A57.83,57.83,0,0,0,60,0,57.83,57.83,0,0,0,17.61,17.58,57.8,57.8,0,0,0,0,60,57.77,57.77,0,0,0,17.61,102.4,57.79,57.79,0,0,0,60,120a57.79,57.79,0,0,0,42.41-17.59A57.77,57.77,0,0,0,120,60,57.8,57.8,0,0,0,102.43,17.58Z" transform="translate(-0.02 0.01)"/></g><g id="banned_circle3_0_Layer1_0_FILL" data-name="banned circle3 0 Layer1 0 FILL"><path class="cls-1" d="M98.49,21.52a52.53,52.53,0,0,0-38.56-16,52.51,52.51,0,0,0-38.55,16,52.54,52.54,0,0,0-16,38.55,52.54,52.54,0,0,0,16,38.55,52.54,52.54,0,0,0,38.55,16,52.56,52.56,0,0,0,38.56-16,52.54,52.54,0,0,0,16-38.55A52.54,52.54,0,0,0,98.49,21.52Z" transform="translate(-0.02 0.01)"/></g><g id="banned_circle3_0_Layer0_0_FILL" data-name="banned circle3 0 Layer0 0 FILL"><path d="M90,30A40.88,40.88,0,0,0,60,17.51,40.88,40.88,0,0,0,30,30a40.88,40.88,0,0,0-12.44,30A40.88,40.88,0,0,0,30,89.93a40.88,40.88,0,0,0,30,12.44A40.88,40.88,0,0,0,90,89.93a40.88,40.88,0,0,0,12.44-30A40.88,40.88,0,0,0,90,30Z" transform="translate(-0.02 0.01)"/></g><g id="FL_2_mc_0_Layer0_0_FILL" data-name="FL 2 mc 0 Layer0 0 FILL"><path class="cls-2" d="M80.55,50.1a17.66,17.66,0,0,0,2.5-9.3,13.6,13.6,0,0,0-1.55-6.4,15.12,15.12,0,0,0-4.5-5,21.24,21.24,0,0,0-7-3.25A33.83,33.83,0,0,0,61.2,25a30.78,30.78,0,0,0-13,2.5,24.81,24.81,0,0,0-9.4,7.85V44.8h5.5a28.91,28.91,0,0,1,1.4-4.15,14.24,14.24,0,0,1,2.15-3.5,9.58,9.58,0,0,1,3.15-2.45,9.08,9.08,0,0,1,4.4-1,9.35,9.35,0,0,1,7.1,2.9,10.63,10.63,0,0,1,2.7,7.55A19.23,19.23,0,0,1,64,51a29.36,29.36,0,0,1-4,7.1,66.27,66.27,0,0,1-7,7.9q-4.3,4.16-10.3,9l-2.55,2-1.65,1.3-1.25,1.1-1,1v8.65h42L83.75,72.9h-4.1l-1,1.45-1.15,1.3-2,.9-3.15.6-3.65.3-3.45.1H47.2l6.9-4.5,7.15-4.85,6.9-5.1,6.15-5.25A36.35,36.35,0,0,0,80.55,50.1Z" transform="translate(-0.02 0.01)"/></g></svg>